# xmcd
#
# Track frame offsets: 
#        150
#        99818
#        199486
#
# Disc length: 3986 seconds
#
# Revision: 0
# Processed by: cddbd v1.5.1PL0 Copyright (c) Steve Scherf et al.
# Submitted via: ExactAudioCopy v0.95a5
#
DISCID=1f0f9003
DTITLE=Various Artist - хпнркл╚Э└ыня
DYEAR=2004
DGENRE=Acid
TTITLE0=хпнркл╚Э└ыня01
TTITLE1=хпнркл╚Э└ыня02
TTITLE2=хпнркл╚Э└ыня03
EXTD=
EXTT0=
EXTT1=
EXTT2=
PLAYORDER=
